# 3ds Max Wavefront OBJ Exporter v0.97b - (c)2007 guruware
# File Created: 10.08.2016 08:17:41

#
# object Prism002
#

v  1.4150 0.4711 5.0000
v  0.0000 0.0000 5.0000
v  2.8300 0.0000 5.0000
v  1.4150 1.4134 5.0000
v  0.0000 0.0000 0.0000
v  2.8300 0.0000 0.0000
v  1.4150 1.4134 0.0000
v  1.4150 0.4711 0.0000
# 8 vertices

vn 0.0000 0.0000 1.0000
vn 0.0000 -1.0000 0.0000
vn 0.7067 0.7075 0.0000
vn -0.7067 0.7075 0.0000
vn 0.0000 0.0000 -1.0000
# 5 vertex normals

vt 0.5000 0.3333 0.0000
vt -0.0000 0.0000 0.0000
vt 1.0000 0.0000 0.0000
vt 0.5000 1.0000 0.0000
vt 0.0000 1.0000 0.0000
vt 0.0000 0.0000 0.0000
vt 0.4143 0.0000 0.0000
vt 0.4143 1.0000 0.0000
vt 0.7072 0.0000 0.0000
vt 0.7072 1.0000 0.0000
vt 1.0000 1.0000 0.0000
vt 0.5000 0.6667 0.0000
vt 0.5000 0.0000 0.0000
# 13 texture coords

g Prism002
f 1/1/1 2/2/1 3/3/1 
f 1/1/1 3/3/1 4/4/1 
f 1/1/1 4/4/1 2/2/1 
f 2/5/2 5/6/2 6/7/2 
f 2/5/2 6/7/2 3/8/2 
f 3/8/3 6/7/3 7/9/3 
f 3/8/3 7/9/3 4/10/3 
f 4/10/4 7/9/4 5/3/4 
f 4/10/4 5/3/4 2/11/4 
f 5/11/5 8/12/5 6/5/5 
f 6/5/5 8/12/5 7/13/5 
f 7/13/5 8/12/5 5/11/5 
# 12 faces

